:FULLY-SPECIFIED
:FORCE-ALL-JOINTS-BE-3DOF
:DEGREES
1733
root -5.243 15.5666 27.06 167.656 7.36394 173.602
lfemur -43.3782 10.7466 -15.7536
ltibia 56.7125 -0 0
lfoot -17.0492 26.9896 -0.16878
ltoes -12.2331 0 0
rfemur -22.8113 -14.8618 15.7866
rtibia 63.2519 -0 0
rfoot -9.82656 -25.2233 0.00787544
rtoes 11.4323 -0 0
lowerback 16.1844 3.34717 -7.10863
upperback -0.535425 3.25891 1.45288
thorax -10.2219 1.99986 4.73773
lowerneck 5.22505 -15.9769 -17.7486
upperneck -3.61184 -22.685 24.6753
head 3.05537 -11.6585 9.23134
lclavicle 1.18078e-013 3.02153e-014 0
lhumerus -54.0683 -35.9753 117.058
lradius 98.81 -0 0
lwrist 45.4246 0 0
lhand -1.92809 35.8654 -0.0350568
lfingers 7.12502 -0 0
lthumb 23.7454 64.4544 -0.0247562
rclavicle 1.18078e-013 3.02153e-014 0
rhumerus 20.658 45.1381 -36.3241
rradius 123.113 -0 0
rwrist -15.2897 0 0
rhand 6.78853 -28.4152 0.0776329
rfingers 7.12502 -0 0
rthumb 32.0754 -55.636 0.0723573
1734
root -5.17534 15.5688 27.1119 168.967 9.41832 174.49
lfemur -42.4309 8.81043 -14.4944
ltibia 56.3789 -0 0
lfoot -16.913 25.5855 -0.1639
ltoes -14.3595 0 0
rfemur -23.4196 -15.2548 16.1786
rtibia 62.3013 -0 0
rfoot -10.2578 -25.157 0.00512657
rtoes 10.8785 -0 0
lowerback 16.3507 3.61823 -7.35212
upperback -0.445408 3.54759 1.15708
thorax -10.2527 2.14384 4.46717
lowerneck 5.10319 -15.9355 -17.8204
upperneck -3.49917 -22.5928 24.7162
head 3.09797 -11.583 9.25253
lclavicle 1.18078e-013 3.02153e-014 0
lhumerus -55.2942 -33.9329 116.133
lradius 99.435 -0 0
lwrist 45.4972 0 0
lhand -1.88592 34.8293 -0.0294384
lfingers 7.12502 -0 0
lthumb 23.7859 63.4138 -0.0191601
rclavicle 1.18078e-013 3.02153e-014 0
rhumerus 14.9966 45.264 -39.6398
rradius 122.71 -0 0
rwrist -14.6387 0 0
rhand 6.34266 -28.6918 0.0764211
rfingers 7.12502 -0 0
rthumb 31.6512 -56.0022 0.0702335
1735
root -5.10767 15.571 27.1637 170.611 11.3423 175.668
lfemur -41.5191 6.87115 -13.2766
ltibia 56.0809 -0 0
lfoot -16.7786 24.181 -0.156126
ltoes -16.4967 0 0
rfemur -24.0625 -15.6593 16.592
rtibia 61.3631 -0 0
rfoot -10.6937 -25.0817 0.00265317
rtoes 10.2983 -0 0
lowerback 16.5151 3.88665 -7.58581
upperback -0.356402 3.83433 0.866021
thorax -10.2815 2.28596 4.1973
lowerneck 4.97487 -15.8856 -17.8797
upperneck -3.37967 -22.4877 24.7401
head 3.13852 -11.5006 9.26842
lclavicle 1.18078e-013 3.02153e-014 0
lhumerus -56.5115 -31.9271 115.167
lradius 100.055 -0 0
lwrist 45.521 0 0
lhand -1.86532 33.7982 -0.0230164
lfingers 7.12502 -0 0
lthumb 23.8057 62.3802 -0.012978
rclavicle 1.18078e-013 3.02153e-014 0
rhumerus 9.43253 45.103 -42.9055
rradius 122.209 -0 0
rwrist -13.9781 0 0
rhand 5.88233 -28.9711 0.0734174
rfingers 7.12502 -0 0
rthumb 31.2129 -56.3712 0.0664829
1736
root -5.04 15.5731 27.2155 172.509 13.1492 177.073
lfemur -40.6522 4.95945 -12.1092
ltibia 55.8257 -0 0
lfoot -16.6435 22.7948 -0.145734
ltoes -18.6121 0 0
rfemur -24.7246 -16.0754 17.022
rtibia 60.4465 -0 0
rfoot -11.1284 -24.9996 0.000596722
rtoes 9.69701 -0 0
lowerback 16.6742 4.15015 -7.8044
upperback -0.27023 4.11753 0.583159
thorax -10.3079 2.42531 3.92951
lowerneck 4.83892 -15.8257 -17.9238
upperneck -3.25225 -22.3681 24.7442
head 3.17685 -11.4104 9.27794
lclavicle 1.18078e-013 3.02153e-014 0
lhumerus -57.7158 -29.979 114.177
lradius 100.664 -0 0
lwrist 45.4915 0 0
lhand -1.86729 32.7851 -0.0162708
lfingers 7.12502 -0 0
lthumb 23.8037 61.3666 -0.0066819
rclavicle 1.18078e-013 3.02153e-014 0
rhumerus 4.09078 44.6647 -46.0222
rradius 121.598 -0 0
rwrist -13.3096 0 0
rhand 5.40624 -29.2495 0.0687114
rfingers 7.12502 -0 0
rthumb 30.7593 -56.739 0.0612406
1737
root -4.97234 15.5753 27.2673 174.572 14.8579 178.637
lfemur -39.8379 3.10672 -10.9999
ltibia 55.6205 -0 0
lfoot -16.5054 21.4457 -0.132974
ltoes -20.6733 0 0
rfemur -25.3903 -16.504 17.4637
rtibia 59.5608 -0 0
rfoot -11.5559 -24.9127 -0.000950189
rtoes 9.07982 -0 0
lowerback 16.8249 4.40635 -8.0026
upperback -0.188666 4.3956 0.311952
thorax -10.3317 2.561 3.66515
lowerneck 4.69414 -15.7542 -17.9502
upperneck -3.11585 -22.2323 24.726
head 3.21276 -11.3119 9.28003
lclavicle 1.18078e-013 3.02153e-014 0
lhumerus -58.9012 -28.109 113.181
lradius 101.255 -0 0
lwrist 45.4042 0 0
lhand -1.89281 31.8031 -0.00969954
lfingers 7.12502 -0 0
lthumb 23.7791 60.3862 -0.000758868
rclavicle 1.18078e-013 3.02153e-014 0
rhumerus -0.914085 43.9737 -48.9021
rradius 120.866 -0 0
rwrist -12.6352 0 0
rhand 4.91307 -29.523 0.0624424
rfingers 7.12502 -0 0
rthumb 30.2892 -57.1015 0.0546873
